<svg width="34" height="27" viewBox="0 0 34 27" fill="none" xmlns="http://www.w3.org/2000/svg">
<path d="M16.8375 7.25C16.8375 9.40391 15.0914 11.15 12.9375 11.15C10.7836 11.15 9.0375 9.40391 9.0375 7.25C9.0375 5.09609 10.7836 3.35 12.9375 3.35C15.0914 3.35 16.8375 5.09609 16.8375 7.25ZM12.9375 13.85C16.5826 13.85 19.5375 10.8951 19.5375 7.25C19.5375 3.60492 16.5826 0.65 12.9375 0.65C9.29242 0.65 6.3375 3.60492 6.3375 7.25C6.3375 10.8951 9.29242 13.85 12.9375 13.85Z" fill="white" stroke="white" stroke-width="0.7" stroke-linecap="round" stroke-linejoin="round"/>
<path d="M2 5.9C1.25442 5.9 0.65 6.50442 0.65 7.25C0.65 7.99558 1.25442 8.6 2 8.6H7.20833C7.95392 8.6 8.55833 7.99558 8.55833 7.25C8.55833 6.50442 7.95392 5.9 7.20833 5.9H2Z" fill="white" stroke="white" stroke-width="0.7" stroke-linecap="round" stroke-linejoin="round"/>
<path d="M18.6665 5.9C17.9209 5.9 17.3165 6.50442 17.3165 7.25C17.3165 7.99558 17.9209 8.6 18.6665 8.6H31.729C32.4746 8.6 33.079 7.99558 33.079 7.25C33.079 6.50442 32.4746 5.9 31.729 5.9H18.6665Z" fill="white" stroke="white" stroke-width="0.7" stroke-linecap="round" stroke-linejoin="round"/>
<path d="M17.8915 19.75C17.8915 21.9039 19.6376 23.65 21.7915 23.65C23.9454 23.65 25.6915 21.9039 25.6915 19.75C25.6915 17.5961 23.9454 15.85 21.7915 15.85C19.6376 15.85 17.8915 17.5961 17.8915 19.75ZM21.7915 26.35C18.1464 26.35 15.1915 23.3951 15.1915 19.75C15.1915 16.1049 18.1464 13.15 21.7915 13.15C25.4366 13.15 28.3915 16.1049 28.3915 19.75C28.3915 23.3951 25.4366 26.35 21.7915 26.35Z" fill="white" stroke="white" stroke-width="0.7" stroke-linecap="round" stroke-linejoin="round"/>
<path d="M31.729 18.4C32.4746 18.4 33.079 19.0044 33.079 19.75C33.079 20.4956 32.4746 21.1 31.729 21.1H27.5207C26.7751 21.1 26.1707 20.4956 26.1707 19.75C26.1707 19.0044 26.7751 18.4 27.5207 18.4H31.729Z" fill="white" stroke="white" stroke-width="0.7" stroke-linecap="round" stroke-linejoin="round"/>
<path d="M16.0625 18.4C16.8081 18.4 17.4125 19.0044 17.4125 19.75C17.4125 20.4956 16.8081 21.1 16.0625 21.1H2C1.25442 21.1 0.65 20.4956 0.65 19.75C0.65 19.0044 1.25442 18.4 2 18.4H16.0625Z" fill="white" stroke="white" stroke-width="0.7" stroke-linecap="round" stroke-linejoin="round"/>
</svg>
